<svg width="127" height="42" viewBox="0 0 127 42" fill="none" xmlns="http://www.w3.org/2000/svg">
<path d="M22.8827 21.7922C20.0701 21.7922 17.5006 23.0423 16.1116 25.1257C15.1047 22.9381 12.9171 21.7922 10.5559 21.7922C8.09055 21.7575 5.86825 23.0423 4.79183 25.0215V22.3131H0V41.2373H4.896V30.8898C4.896 28.0772 6.63217 26.3063 9.02808 26.3063C11.3545 26.3063 12.8477 27.9383 12.8477 30.7509V41.2373H17.7437V30.855C17.7437 28.0772 19.4451 26.3063 21.9105 26.3063C24.1675 26.3063 25.6953 27.8341 25.6953 30.7162V41.2373H30.5913V29.8133C30.5913 27.2785 29.8621 25.334 28.4037 23.9104C26.9801 22.4867 25.1397 21.7922 22.8827 21.7922Z" fill="white"/>
<path d="M30.6591 31.7579C30.6591 34.5705 31.5967 36.9316 33.5064 38.8414C35.4162 40.7512 37.8469 41.7235 40.7984 41.7235C43.7498 41.7235 46.1805 40.7512 48.0903 38.8414C50 36.9316 50.5068 34.5705 50.5068 31.7579C50.5068 28.98 50 26.6188 48.0903 24.709C46.1805 22.7645 43.7498 21.7922 40.7984 21.7922C37.8469 21.7922 35.4162 22.7645 33.5064 24.709C31.5967 26.6188 30.6591 28.98 30.6591 31.7579ZM37.0482 35.6122C36.0412 34.5357 35.5551 33.251 35.5551 31.7579C35.5551 30.2648 36.0412 28.98 37.0482 27.9383C38.0552 26.8966 39.3052 26.3757 40.7984 26.3757C42.2915 26.3757 43.5068 26.8966 44.5138 27.9383C45.5207 28.98 46.0416 30.2648 46.0416 31.7579C46.0416 33.251 45.5207 34.5357 44.5138 35.6122C43.5068 36.6539 42.2915 37.1747 40.7984 37.1747C39.3052 37.1747 38.0552 36.6539 37.0482 35.6122Z" fill="white"/>
<path d="M50.5068 31.7579C50.5068 34.5705 51.1909 36.9316 53.1007 38.8414C55.0105 40.7512 57.4412 41.7235 60.3926 41.7235C63.3441 41.7235 65.7748 40.7512 67.6846 38.8414C69.5943 36.9316 70.5319 34.5705 70.5319 31.7579C70.5319 28.98 69.5943 26.6188 67.6846 24.709C65.7748 22.7645 63.3441 21.7922 60.3926 21.7922C57.4412 21.7922 55.0105 22.7645 53.1007 24.709C51.1909 26.6188 50.5068 28.98 50.5068 31.7579ZM56.6425 35.6122C55.6355 34.5357 55.1494 33.251 55.1494 31.7579C55.1494 30.2648 55.6355 28.98 56.6425 27.9383C57.6495 26.8966 58.8995 26.3757 60.3926 26.3757C61.8857 26.3757 63.1011 26.8966 64.108 27.9383C65.115 28.98 65.6359 30.2648 65.6359 31.7579C65.6359 33.251 65.115 34.5357 64.108 35.6122C63.1011 36.6539 61.8857 37.1747 60.3926 37.1747C58.8995 37.1747 57.6495 36.6539 56.6425 35.6122Z" fill="white"/>
<path d="M78.0999 34.5705L73.3428 22.3131H67.9607L76.1554 41.2026H79.9056L88.135 22.3131H82.7529L78.0999 34.5705Z" fill="white"/>
<path d="M98.125 21.827C95.8333 21.827 93.9235 22.7298 92.3609 24.5007V14.8476H87.4649V41.2373H92.222V38.8762C93.7846 40.7512 95.7291 41.6888 98.125 41.6888C100.799 41.6888 103.056 40.7512 104.861 38.8762C106.667 36.9664 106.905 34.896 106.905 32.0834C106.905 29.2708 106.667 26.6188 104.861 24.709C103.056 22.7992 100.799 21.827 98.125 21.827ZM92.1526 31.7579C92.1526 30.2648 92.6387 28.98 93.611 27.9383C94.5832 26.8619 95.8333 26.341 97.3611 26.341C98.8889 26.341 100.139 26.8619 101.111 27.9036C102.083 28.9453 102.57 30.23 102.57 31.7579C102.57 33.2857 102.083 34.5705 101.111 35.6469C100.139 36.6886 98.8889 37.2094 97.3611 37.2094C95.8333 37.2094 94.5832 36.6886 93.611 35.6469C92.6387 34.5705 92.1526 33.2857 92.1526 31.7579Z" fill="#FFE500"/>
<path d="M126.242 31.3412C126.242 28.3897 125.339 26.0979 123.568 24.3965C121.797 22.6951 119.505 21.827 116.762 21.827C113.845 21.827 111.484 22.7645 109.644 24.6396C107.804 26.5146 106.901 28.8758 106.901 31.7579C106.901 34.501 107.769 36.8622 109.54 38.772C111.311 40.6818 113.845 41.654 117.179 41.654C120.304 41.654 123.047 40.7859 125.443 39.0498L123.499 35.6122C121.867 36.7233 119.436 37.5219 117.387 37.5219C114.401 37.5219 112.561 36.1677 111.866 33.494H126.068C126.172 32.7301 126.242 32.0009 126.242 31.3412ZM116.762 25.8896C119.262 25.8896 121.033 27.3827 121.485 29.8481H111.866C112.457 27.3827 114.297 25.8896 116.762 25.8896Z" fill="#FFE500"/>
<path d="M98.4683 8.11295L117.166 8.04664L107.925 19.9177L98.4683 8.11295Z" fill="#FFE500"/>
</svg>
